<svg id="Layer_1" data-name="Layer 1" xmlns="http://www.w3.org/2000/svg" viewBox="0 0 66.38 55.32"><defs><style>.cls-1{fill:#fff;}</style></defs><title>menu</title><path class="cls-1" d="M67.67,48.26H6.82a2.66,2.66,0,0,0-1.94.82A2.64,2.64,0,0,0,4.06,51v5.54a2.64,2.64,0,0,0,.82,1.94,2.66,2.66,0,0,0,1.94.82H67.67a2.8,2.8,0,0,0,2.77-2.76V51a2.8,2.8,0,0,0-2.77-2.76Z" transform="translate(-4.06 -4)"/><path class="cls-1" d="M69.62,4.82a2.7,2.7,0,0,0-2-.82H6.82a2.69,2.69,0,0,0-1.94.82,2.66,2.66,0,0,0-.82,1.95V12.3a2.62,2.62,0,0,0,.82,1.94,2.67,2.67,0,0,0,1.94.83H67.67a2.67,2.67,0,0,0,2-.83,2.62,2.62,0,0,0,.82-1.94V6.77A2.66,2.66,0,0,0,69.62,4.82Z" transform="translate(-4.06 -4)"/><path class="cls-1" d="M67.67,26.13H6.82A2.66,2.66,0,0,0,4.88,27a2.66,2.66,0,0,0-.82,1.95v5.53a2.62,2.62,0,0,0,.82,1.94,2.66,2.66,0,0,0,1.94.82H67.67a2.66,2.66,0,0,0,2-.82,2.62,2.62,0,0,0,.82-1.94V28.9a2.8,2.8,0,0,0-2.77-2.77Z" transform="translate(-4.06 -4)"/></svg>